<svg width="20" height="26" viewBox="0 0 20 26" fill="none" xmlns="http://www.w3.org/2000/svg">
<path d="M17.7778 15.0038V10.3599C17.7778 6.19395 15.35 2.68452 12.0611 1.6291C11.7356 0.673396 10.94 0 10 0C9.06 0 8.26445 0.673396 7.93889 1.6291C4.65 2.68581 2.22222 6.19395 2.22222 10.3599V15.0038L0.325556 17.2143C0.116667 17.4565 0 17.7854 0 18.1299V20.7199C0 21.436 0.496667 22.0149 1.11111 22.0149H18.8889C19.5033 22.0149 20 21.436 20 20.7199V18.1299C20 17.7854 19.8833 17.4565 19.6744 17.2143L17.7778 15.0038ZM17.7778 19.4249H2.22222V18.666L4.11889 16.4555C4.32778 16.2133 4.44444 15.8844 4.44444 15.5399V10.3599C4.44444 6.78964 6.93667 3.88498 10 3.88498C13.0633 3.88498 15.5556 6.78964 15.5556 10.3599V15.5399C15.5556 15.8844 15.6722 16.2133 15.8811 16.4555L17.7778 18.666V19.4249ZM10 25.8998C11.4567 25.8998 12.6744 24.8198 13.1311 23.3099H6.86889C7.32556 24.8198 8.54333 25.8998 10 25.8998Z" fill="black"/>
</svg>
