<svg width="17" height="15" viewBox="0 0 17 15" fill="none" xmlns="http://www.w3.org/2000/svg">
<path d="M12.3943 0C11.597 0.0124014 10.8171 0.234968 10.1333 0.645223C9.44954 1.05548 8.88614 1.6389 8.5 2.33656C8.11386 1.6389 7.55046 1.05548 6.8667 0.645223C6.18294 0.234968 5.40303 0.0124014 4.60574 0C3.33475 0.0552211 2.13728 0.611225 1.27493 1.54654C0.41258 2.48186 -0.0445429 3.72045 0.00342773 4.99174C0.00342773 8.21123 3.39214 11.7274 6.23425 14.1114C6.86881 14.6446 7.67113 14.937 8.5 14.937C9.32887 14.937 10.1312 14.6446 10.7658 14.1114C13.6079 11.7274 16.9966 8.21123 16.9966 4.99174C17.0445 3.72045 16.5874 2.48186 15.7251 1.54654C14.8627 0.611225 13.6652 0.0552211 12.3943 0Z" fill="#2057E3"/>
</svg>
