<svg width="20" height="27" viewBox="0 0 20 27" fill="none" xmlns="http://www.w3.org/2000/svg">
<path d="M10 13.3199C13.1562 13.3199 15.7143 10.3385 15.7143 6.65996C15.7143 2.98137 13.1562 0 10 0C6.84375 0 4.28571 2.98137 4.28571 6.65996C4.28571 10.3385 6.84375 13.3199 10 13.3199ZM14 14.9849H13.2545C12.2634 15.5156 11.1607 15.8174 10 15.8174C8.83929 15.8174 7.74107 15.5156 6.74554 14.9849H6C2.6875 14.9849 0 18.1172 0 21.9779V24.1424C0 25.5212 0.959821 26.6398 2.14286 26.6398H17.8571C19.0402 26.6398 20 25.5212 20 24.1424V21.9779C20 18.1172 17.3125 14.9849 14 14.9849Z" fill="black"/>
</svg>
