<svg width="13" height="14" viewBox="0 0 13 14" fill="none" xmlns="http://www.w3.org/2000/svg">
<path d="M6.50003 4.35531C6.00133 4.35531 5.51383 4.50319 5.09917 4.78026C4.68451 5.05732 4.36132 5.45112 4.17048 5.91187C3.97963 6.37261 3.9297 6.8796 4.02699 7.36872C4.12428 7.85784 4.36443 8.30713 4.71707 8.65977C5.06971 9.01241 5.51899 9.25256 6.00812 9.34985C6.49724 9.44714 7.00423 9.39721 7.46497 9.20636C7.92571 9.01551 8.31952 8.69233 8.59658 8.27767C8.87365 7.86301 9.02153 7.37551 9.02153 6.8768C9.02077 6.20829 8.75487 5.56738 8.28216 5.09467C7.80946 4.62197 7.16854 4.35607 6.50003 4.35531ZM6.50003 8.48139C6.18268 8.48139 5.87245 8.38728 5.60857 8.21097C5.3447 8.03465 5.13904 7.78405 5.01759 7.49085C4.89614 7.19765 4.86437 6.87502 4.92628 6.56376C4.98819 6.2525 5.14101 5.96659 5.36542 5.74219C5.58983 5.51778 5.87574 5.36496 6.187 5.30305C6.49825 5.24113 6.82088 5.27291 7.11408 5.39436C7.40728 5.5158 7.65789 5.72147 7.8342 5.98534C8.01052 6.24921 8.10462 6.55944 8.10462 6.8768C8.10414 7.30222 7.93494 7.71007 7.63412 8.01089C7.33331 8.3117 6.92545 8.48091 6.50003 8.48139Z" fill="black"/>
<path d="M12.7908 8.77707L11.8804 8.0277C12.0418 7.26892 12.0418 6.48469 11.8804 5.72592L12.7908 4.97655C12.8957 4.89052 12.9667 4.76993 12.9909 4.63637C13.015 4.50281 12.9909 4.36501 12.9227 4.24763L11.9883 2.62921C11.9207 2.51145 11.8135 2.4216 11.6857 2.37576C11.5579 2.32992 11.4179 2.33109 11.291 2.37906L10.186 2.79302C9.61046 2.27298 8.93143 1.88052 8.19349 1.64138L7.99963 0.478886C7.97768 0.344912 7.90873 0.223135 7.80515 0.13538C7.70156 0.0476263 7.57011 -0.000367243 7.43435 2.11615e-06H5.56552C5.42977 -0.000362543 5.29832 0.047629 5.19474 0.135376C5.09116 0.223124 5.02221 0.344891 5.00025 0.478857L4.8065 1.64138C4.06856 1.88051 3.38952 2.27297 2.81394 2.79302L1.70892 2.379C1.58193 2.33107 1.44202 2.32992 1.31425 2.37576C1.18649 2.4216 1.07922 2.51144 1.01167 2.62918L0.0772596 4.24772C0.00911081 4.3651 -0.015023 4.50291 0.00918068 4.63647C0.0333843 4.77002 0.104344 4.8906 0.209352 4.9766L1.11958 5.72592C0.958207 6.48469 0.958207 7.26892 1.11958 8.0277L0.209266 8.77707C0.104275 8.86309 0.0333345 8.98368 0.00914707 9.11724C-0.0150403 9.25079 0.00910501 9.3886 0.0772596 9.50598L1.0117 11.1244C1.07926 11.2422 1.18654 11.332 1.31432 11.3778C1.44211 11.4237 1.58204 11.4225 1.70904 11.3746L2.81397 10.9606C3.38955 11.4806 4.06859 11.8731 4.80652 12.1122L5.00028 13.2747C5.02223 13.4087 5.09117 13.5305 5.19475 13.6182C5.29833 13.706 5.42977 13.754 5.56552 13.7536H7.43435C7.57011 13.754 7.70156 13.706 7.80514 13.6182C7.90872 13.5305 7.97767 13.4087 7.99963 13.2748L8.19341 12.1122C8.93134 11.8731 9.61038 11.4806 10.186 10.9606L11.291 11.3746C11.4179 11.4225 11.5579 11.4237 11.6856 11.3778C11.8134 11.332 11.9206 11.2422 11.9882 11.1244L12.9226 9.5059C12.9907 9.38855 13.0149 9.25077 12.9908 9.11723C12.9666 8.98369 12.8957 8.8631 12.7908 8.77707ZM11.3399 10.4137L9.96138 9.8973L9.75264 10.1074C9.17832 10.6863 8.45997 11.1015 7.67169 11.3101L7.38515 11.3856L7.14318 12.8367H5.85693L5.61504 11.3856L5.3285 11.3101C4.54022 11.1015 3.82187 10.6863 3.24755 10.1074L3.03881 9.8973L1.6601 10.4137L1.01709 9.29979L2.15259 8.365L2.07523 8.07924C1.86247 7.29174 1.86247 6.46188 2.07523 5.67437L2.15259 5.38864L1.01709 4.45385L1.66024 3.33987L3.03873 3.85631L3.24747 3.64617C3.82178 3.0673 4.54013 2.65214 5.32842 2.4435L5.61495 2.36797L5.85681 0.916909H7.14318L7.38507 2.36797L7.6716 2.4435C8.45989 2.65214 9.17824 3.0673 9.75255 3.64617L9.96129 3.85631L11.3398 3.33987L11.983 4.45382L10.8475 5.38864L10.9248 5.67437C11.1376 6.46188 11.1376 7.29174 10.9248 8.07924L10.8475 8.365L11.983 9.29976L11.3399 10.4137Z" fill="black"/>
</svg>
